<?xml version="1.0" encoding="UTF-8"?>
<svg id="Calque_2" data-name="Calque 2" xmlns="http://www.w3.org/2000/svg" viewBox="0 0 1107.21 219.66">
  <defs>
    <style>
      .cls-1 {
        fill-rule: evenodd;
      }

      .cls-1, .cls-2 {
        fill: #fff;
      }

      .cls-2 {
        font-family: Roboto-Regular, Roboto;
        font-size: 195px;
      }

      .cls-3 {
        letter-spacing: 0em;
      }

      .cls-4 {
        letter-spacing: 0em;
      }
    </style>
  </defs>
  <g id="Calque_1-2" data-name="Calque 1">
    <g>
      <path class="cls-1" d="M113.97,26.97c-2.1-.91-4.49-.91-6.59,0L5.01,71.24c-3.04,1.31-5.01,4.31-5.01,7.62s1.97,6.3,5.01,7.62l29.58,12.79v67.33c0,1.61,.47,3.19,1.35,4.54l6.95-4.54q-6.95,4.54-6.95,4.54h0s.01,.03,.01,.03l.03,.05,.08,.13c.07,.1,.16,.23,.27,.39,.22,.32,.53,.75,.94,1.29,.8,1.07,1.97,2.54,3.5,4.27,3.07,3.46,7.64,8.03,13.77,12.58,12.31,9.13,30.95,18.24,56.12,18.24s43.81-9.1,56.12-18.24c6.13-4.55,10.71-9.11,13.77-12.58,1.54-1.73,2.7-3.2,3.5-4.27,.4-.53,.71-.97,.94-1.29,.11-.16,.2-.29,.27-.39l.08-.13,.03-.05v-.02s.02-.01-6.93-4.56l6.95,4.54c.88-1.35,1.35-2.93,1.35-4.54V99.27l17.98-7.78v61.75c0,4.58,3.72,8.3,8.3,8.3s8.3-3.72,8.3-8.3V78.88s0,0,0,0v-.02c0-3.31-1.97-6.3-5.01-7.62L113.97,26.97Zm56.19,79.48l-56.19,24.3c-2.1,.91-4.49,.91-6.59,0l-56.19-24.3v57.42c.52,.66,1.2,1.48,2.03,2.41,2.44,2.76,6.18,6.5,11.23,10.25,10.06,7.47,25.32,14.97,46.23,14.97s36.16-7.5,46.23-14.97c5.05-3.75,8.79-7.49,11.23-10.25,.83-.93,1.5-1.75,2.03-2.41v-57.42Zm-59.49,7.64L29.21,78.86,110.67,43.63l81.46,35.23-81.46,35.23Z"/>
      <text class="cls-2" transform="translate(259.51 166.82)"><tspan x="0" y="0">Uni</tspan><tspan class="cls-4" x="281.36" y="0">v</tspan><tspan class="cls-3" x="374.58" y="0">ersity</tspan></text>
    </g>
  </g>
</svg>